<svg xmlns="http://www.w3.org/2000/svg" xmlns:xlink="http://www.w3.org/1999/xlink" width="500" zoomAndPan="magnify" viewBox="0 0 375 374.999991" height="500" preserveAspectRatio="xMidYMid meet" version="1.0"><defs><g/></defs><rect x="-37.5" width="450" fill="#ffffff" y="-37.499999" height="449.999989" fill-opacity="1"/><rect x="-37.5" width="450" fill="#ffffff" y="-37.499999" height="449.999989" fill-opacity="1"/><rect x="-37.5" width="450" fill="#060816" y="-37.499999" height="449.999989" fill-opacity="1"/><g fill="#ffffff" fill-opacity="1"><g transform="translate(0.0953694, 228.195914)"><g><path d="M 61.1875 -19.53125 L 61.1875 0 L 2.609375 -26.03125 L 2.609375 -42.96875 L 61.1875 -69 L 61.1875 -49.46875 L 24.078125 -34.5 Z M 61.1875 -19.53125 "/></g></g></g><g fill="#ffffff" fill-opacity="1"><g transform="translate(66.483887, 228.195914)"><g><path d="M 0 0 L 39.0625 -91.125 L 61.1875 -91.125 L 23.4375 0 Z M 0 0 "/></g></g></g><g fill="#ffffff" fill-opacity="1"><g transform="translate(127.665518, 228.195914)"><g><path d="M 58.578125 -91.125 C 68.390625 -91.125 75.832031 -88.585938 80.90625 -83.515625 C 85.988281 -78.441406 88.53125 -71 88.53125 -61.1875 L 88.53125 -29.9375 C 88.53125 -20.132812 85.988281 -12.691406 80.90625 -7.609375 C 75.832031 -2.535156 68.390625 0 58.578125 0 L 7.8125 0 L 7.8125 -91.125 Z M 65.09375 -61.1875 C 65.09375 -69 61.1875 -72.90625 53.375 -72.90625 L 31.25 -72.90625 L 31.25 -18.21875 L 53.375 -18.21875 C 61.1875 -18.21875 65.09375 -22.125 65.09375 -29.9375 Z M 65.09375 -61.1875 "/></g></g></g><g fill="#ffffff" fill-opacity="1"><g transform="translate(221.390522, 228.195914)"><g><path d="M 7.8125 -91.125 L 62.484375 -91.125 C 71.597656 -91.125 78.21875 -89.0625 82.34375 -84.9375 C 86.46875 -80.820312 88.53125 -74.207031 88.53125 -65.09375 L 88.53125 -52.078125 C 88.53125 -42.960938 86.46875 -36.34375 82.34375 -32.21875 C 78.21875 -28.09375 71.597656 -26.03125 62.484375 -26.03125 L 31.25 -26.03125 L 31.25 0 L 7.8125 0 Z M 65.09375 -65.09375 C 65.09375 -70.300781 62.488281 -72.90625 57.28125 -72.90625 L 31.25 -72.90625 L 31.25 -44.265625 L 57.28125 -44.265625 C 62.488281 -44.265625 65.09375 -46.867188 65.09375 -52.078125 Z M 65.09375 -65.09375 "/></g></g></g><g fill="#ffffff" fill-opacity="1"><g transform="translate(313.813852, 228.195914)"><g><path d="M 42.3125 -34.5 L 5.203125 -49.46875 L 5.203125 -69 L 63.796875 -42.96875 L 63.796875 -26.03125 L 5.203125 0 L 5.203125 -19.53125 Z M 42.3125 -34.5 "/></g></g></g></svg>